<?xml version="1.0" encoding="UTF-8"?>
<svg id="Icons" xmlns="http://www.w3.org/2000/svg" viewBox="0 0 100 100">
  <defs>
    <style>
      .cls-1 {
        fill: #15375f;
      }
    </style>
  </defs>
  <path class="cls-1" d="m89.56,66.69c-.56-.74-1.24-1.39-1.9-2.04-.38-.37-.78-.72-1.15-1.1-.57-.58-1.16-1.12-1.75-1.67-.25-.24-.52-.47-.76-.71-.43-.42-.88-.83-1.31-1.24-.28-.26-.57-.51-.84-.77-.46-.44-.93-.87-1.39-1.3-.29-.27-.6-.54-.89-.82-.44-.42-.9-.82-1.33-1.25-.49-.48-1-.93-1.5-1.4-.55-.51-1.11-1.02-1.66-1.53-.36-.33-.71-.67-1.07-1-.57-.52-1.13-1.04-1.7-1.57-.28-.25-.55-.51-.83-.76-.52-.47-1.02-.97-1.53-1.45-.33-.31-.67-.61-.99-.93-.53-.53-1.06-1.07-1.58-1.61-.52-.54-1.01-1.11-1.4-1.75-.35-.57-.66-1.16-.96-1.75-.21-.43-.46-.85-.6-1.31-.03-.07-.05-.15-.02-.23-.02-.12.05-.22.1-.32.39-.79.97-1.45,1.51-2.13.71-.9,1.33-1.85,1.93-2.82.68-1.11,1.33-2.24,1.9-3.41l2.97,2.62c.69.61,1.76.54,2.37-.15.61-.69.54-1.76-.15-2.37l-4.93-4.35c.16-.3.3-.6.4-.92.17-.55.38-1.08.46-1.65.07-.47-.05-.74-.42-.78-.11,0-.22,0-.32.03-.55.15-1.02.47-1.52.73-.31.16-.61.36-.89.58l-5.12-4.52c-.69-.61-1.76-.54-2.37.15-.61.69-.54,1.76.15,2.37l3.33,2.94c-.33.24-.65.49-.97.75-.73.59-1.44,1.2-2.14,1.83-.5.45-.97.92-1.46,1.38-.01.02-.02.05-.04.07-.54.53-1.04,1.12-1.53,1.69-.38.44-.77.86-1.22,1.22-.24.19-.48.27-.79.19-2.04-.49-4-1.17-5.75-2.4-2.54-1.79-5.04-3.63-7.54-5.48-4.51-3.33-8.98-6.7-13.55-9.95-.97-.69-1.94-1.38-2.98-1.96-.4-.23-.82-.25-1.26-.16-.68.14-1.19.53-1.66,1.01-.32.33-.57.7-.84,1.07-.02.02-.04.04-.05.06-.58.91-1.04,1.88-1.46,2.86-.37.86-.7,1.74-1.06,2.61-.05.13-.03.2.05.29.84.97,1.68,1.94,2.52,2.91,1.78,2.05,3.56,4.1,5.34,6.15,1.7,1.96,3.4,3.92,5.1,5.88,1.54,1.78,3.08,3.56,4.63,5.33,1.58,1.82,3.16,3.65,4.75,5.47.58.67,1.16,1.34,1.74,2.01.05.06.13.11.06.22-.23.36-.46.73-.69,1.1-.43.69-.87,1.38-1.3,2.07-.47.76-.94,1.52-1.41,2.28-.43.69-.86,1.38-1.29,2.07-.47.76-.93,1.51-1.4,2.27-.4.65-.81,1.3-1.22,1.95-.42.67-.83,1.34-1.24,2.01-.55.89-1.11,1.77-1.66,2.65-.56.91-1.13,1.81-1.68,2.73-.04.07-.07.04-.1.03-.33-.17-.68-.28-.99-.48-.71-.44-1.42-.89-2.11-1.36-.5-.34-1.02-.65-1.52-1-.6-.42-1.21-.83-1.82-1.25-.86-.59-1.72-1.17-2.59-1.73-.65-.42-1.3-.84-1.98-1.22-.2-.11-.38-.26-.62-.29-.07,0-.14,0-.2.02-.07.04-.14.04-.22.09-.41.24-.73.58-1.04.93-.61.69-1.12,1.46-1.57,2.26-.32.57-.63,1.15-.73,1.82-.03.18-.02.37.14.5.7.6,1.33,1.27,1.97,1.93.86.9,1.7,1.81,2.52,2.75.34.4.61.85.93,1.26.81,1,1.7,1.93,2.6,2.85.98,1.01,1.99,2,3.15,2.8.93.64,1.87,1.28,2.84,1.87.78.48,1.56.94,2.4,1.32,1.1.5,2.11,1.19,3.13,1.84,1.01.65,2.03,1.29,2.98,2.03.14.11.29.12.46.08.27-.08.52-.21.75-.36,1.01-.66,1.88-1.5,2.67-2.41.34-.39.65-.81.88-1.27.17-.34.16-.63-.1-.93-.6-.7-1.21-1.38-1.85-2.04-1.63-1.71-3.35-3.33-4.98-5.03-.79-.82-1.63-1.6-2.27-2.56-.1-.14-.09-.21.04-.33,5.47-5.02,10.94-10.05,16.41-15.08.12-.11.2-.12.34-.04,7.48,4.36,14.96,8.72,22.43,13.09,3.09,1.8,6.18,3.6,9.26,5.4.13.08.22.07.34-.01.47-.32.95-.63,1.43-.93,1.4-.89,2.77-1.81,3.92-3.03.57-.61,1.04-1.29,1.16-2.15.06-.48.04-.97-.26-1.35Z"/>
</svg>